<svg width="48" height="48" viewBox="0 0 31 41" fill="none" xmlns="http://www.w3.org/2000/svg">
<path d="M15.1942 9.98769C13.9857 13.5454 13.3804 17.0737 13.3804 20.5683C13.3804 24.2838 13.9772 27.7868 15.1687 31.0775C15.8611 32.9888 16.7467 34.9296 17.8214 36.8998V4.13806C16.7658 5.98841 15.8887 7.93969 15.1942 9.98769Z" fill="#E52D16"/>
<path d="M8.39778 9.86154C7.18929 13.4193 6.58398 16.9475 6.58398 20.4422C6.58398 24.1576 7.1808 27.6607 8.37229 30.9513C9.40238 33.792 10.853 36.6958 12.7241 39.6648V1.3331C10.8806 3.95303 9.43849 6.79584 8.39778 9.85943V9.86154Z" fill="#E52D16"/>
<path d="M1.8138 9.86154C0.605307 13.4193 0 16.9475 0 20.4422C0 24.1576 0.596812 27.6607 1.78831 30.9513C2.81839 33.792 4.26901 36.6958 6.14015 39.6648V1.3331C4.29662 3.95303 2.8545 6.79584 1.8138 9.85943V9.86154Z" fill="#E52D16"/>
<path d="M18.4778 20.3581C18.4778 16.8634 19.0831 13.3351 20.2916 9.77742C21.5001 6.2197 23.2502 2.96056 25.5397 0H30.6922C28.5938 3.21288 27.0816 6.47833 26.1599 9.80055C25.2381 13.1228 24.7772 16.6426 24.7772 20.3581C24.7772 24.0735 25.2381 27.7826 26.1599 31.1048C27.0816 34.427 28.5938 37.7261 30.6922 41H25.5397C23.2183 37.5369 21.4597 34.1579 20.2682 30.8672C19.0746 27.5765 18.4799 24.0735 18.4799 20.3581H18.4778Z" fill="#E52D16"/>
</svg>
